<svg width="148" height="32" viewBox="0 0 148 32" fill="none" xmlns="http://www.w3.org/2000/svg">
<path d="M25.075 11.0335L25.4851 11.6299C25.5175 11.6768 25.5295 11.7349 25.5192 11.7905L25.3851 12.5021C25.3159 12.8695 25.726 13.1369 26.0335 12.925L26.6299 12.5149C26.6768 12.4825 26.7349 12.4705 26.7905 12.4808L27.5021 12.6149C27.8695 12.6841 28.1369 12.274 27.925 11.9665L27.5149 11.3701C27.4825 11.3232 27.4705 11.2651 27.4808 11.2095L27.6149 10.4979C27.6841 10.1305 27.274 9.86313 26.9665 10.075L26.3701 10.4851C26.3232 10.5175 26.2651 10.5295 26.2095 10.5192L25.4979 10.3851C25.1305 10.3159 24.8631 10.726 25.075 11.0335Z" fill="#5A46FF"/>
<path d="M2.31843 22.5098L3.11285 22.8067C3.17503 22.8303 3.22649 22.8775 3.25329 22.9386L3.60279 23.7116C3.7829 24.1104 4.35647 24.0911 4.50978 23.6816L4.80675 22.8872C4.83033 22.825 4.87751 22.7735 4.93862 22.7467L5.71159 22.3972C6.11041 22.2171 6.09111 21.6435 5.68158 21.4902L4.88716 21.1933C4.82497 21.1697 4.77351 21.1225 4.74671 21.0614L4.39721 20.2884C4.2171 19.8896 3.64353 19.9089 3.49022 20.3184L3.19325 21.1128C3.16967 21.175 3.12249 21.2265 3.06138 21.2533L2.28841 21.6028C1.88959 21.7829 1.90889 22.3565 2.31843 22.5098Z" fill="#5A46FF"/>
<path d="M14.2395 2.5102L14.8356 2.80707C14.8827 2.83047 14.9202 2.87836 14.941 2.93901L15.2027 3.71149C15.3376 4.1105 15.7677 4.09135 15.8827 3.68064L16.1053 2.8858C16.1229 2.82303 16.1588 2.77302 16.2043 2.74535L16.7836 2.39635C17.0829 2.21653 17.0685 1.64302 16.7605 1.4898L16.1644 1.19293C16.1173 1.16952 16.0798 1.12164 16.059 1.06099L15.7973 0.288508C15.6624 -0.110503 15.2323 -0.0913496 15.1173 0.319366L14.8947 1.1142C14.8771 1.17697 14.8412 1.22698 14.7957 1.25465L14.2164 1.60365C13.9171 1.78347 13.9315 2.35698 14.2395 2.5102Z" fill="#5A46FF"/>
<path d="M4.6122 1.4295C5.53602 2.30788 6.28317 3.38981 6.69771 4.61113C7.03625 5.61084 7.24056 7.21118 6.02557 7.70953C5.20538 8.04544 4.4 6.93543 4.72274 6.17537C4.90928 5.73517 5.49062 5.71512 5.88344 5.80235C6.49143 5.93672 7.06191 6.25759 7.586 6.58648C8.77138 7.3315 9.74356 8.37032 10.4443 9.59163C10.9832 10.5312 12.4213 9.68087 11.8804 8.73832C11.0069 7.21519 9.7564 5.92168 8.26012 5.02525C7.44684 4.53793 6.50623 4.07868 5.54392 4.07066C4.6349 4.06264 3.69627 4.50283 3.27285 5.35113C2.42601 7.05074 3.6558 9.27878 5.51036 9.45025C7.48434 9.63274 8.74473 7.54508 8.62333 5.75824C8.4812 3.66356 7.27016 1.64408 5.7877 0.234254C5.00699 -0.507758 3.82853 0.684475 4.61121 1.4295H4.6122Z" fill="#5A46FF"/>
<path d="M21.2589 8.60415C22.1431 6.8063 23.0265 5.00751 23.9107 3.20966C24.0956 2.83384 23.9831 2.327 23.668 2.10705C23.3513 1.88615 22.9268 2.01907 22.7411 2.39586C21.8569 4.1937 20.9735 5.99249 20.0893 7.79033C19.9044 8.16616 20.0169 8.673 20.332 8.89295C20.6487 9.11385 21.0732 8.98093 21.2589 8.60415Z" fill="#5A46FF"/>
<path d="M0.698028 14.9997C2.5663 14.9493 4.43456 14.8989 6.30197 14.8474C7.23096 14.8222 7.23439 12.975 6.30197 13.0003C4.4337 13.0507 2.56544 13.1011 0.698028 13.1526C-0.23096 13.1778 -0.234391 15.025 0.698028 14.9997Z" fill="#5A46FF"/>
<path d="M22.4656 20.9269C24.3189 21.6807 27.9694 23.0721 29.8226 23.8259C30.2098 23.9831 30.6653 23.8239 30.8388 23.4189C31.0021 23.0371 30.8336 22.5258 30.4454 22.3677C28.5921 21.6139 24.9416 20.2225 23.0883 19.4686C22.7011 19.3114 22.2457 19.4707 22.0721 19.8756C21.9089 20.2575 22.0774 20.7688 22.4656 20.9269Z" fill="#5A46FF"/>
<path d="M8.64436 30.6303C9.83352 28.9702 10.6922 27.7893 11.8814 26.1292C12.1299 25.782 11.9705 25.3027 11.5647 25.1001C11.1453 24.8913 10.6052 25.0225 10.3556 25.3697C9.16648 27.0297 8.30775 28.2107 7.1186 29.8708C6.87007 30.218 7.02946 30.6973 7.43529 30.8999C7.85474 31.1087 8.39479 30.9775 8.64436 30.6303Z" fill="#5A46FF"/>
<path d="M20.0227 26.1286C20.3091 27.538 21.3082 30.2381 21.7692 31.5628C21.916 31.9847 22.398 32.1232 22.6806 31.8813C23.0074 31.601 23.0765 31.1191 22.9196 30.6672C22.8661 30.5132 22.5273 29.5373 22.476 29.3812C22.4465 29.2923 22.4163 29.2044 22.3891 29.1144C22.4326 29.2581 22.393 29.1258 22.372 29.0575C22.275 28.7432 22.1834 28.4267 22.0965 28.1072C21.9226 27.4681 21.4409 26.3116 21.3074 25.656C21.2166 25.2082 20.8292 24.8887 20.4884 25.0366C20.1438 25.1855 19.9257 25.6477 20.0235 26.1275L20.0227 26.1286Z" fill="#5A46FF"/>
<path d="M19.8534 29.9605C20.8712 29.5111 22.4578 28.8243 23.5008 28.4504C23.8354 28.3303 24.0875 27.9359 23.9712 27.5456C23.8636 27.1812 23.5008 26.9033 23.1426 27.0319C22.0988 27.4059 20.5131 28.0927 19.4952 28.542C19.3264 28.6167 19.1881 28.7016 19.0923 28.8799C19.0075 29.0377 18.9721 29.2702 19.0248 29.4468C19.1269 29.7899 19.5039 30.1149 19.8534 29.9605Z" fill="#5A46FF"/>
<path d="M20.3382 13.693H16.7686V8.69884C16.7686 7.98552 15.8744 7.73232 15.5357 8.34854L10.0901 18.2597C9.83471 18.7244 10.1528 19.307 10.6618 19.307H14.2314V24.3012C14.2314 25.0145 15.1256 25.2677 15.4643 24.6515L20.9099 14.7403C21.1653 14.2756 20.8472 13.693 20.3382 13.693Z" fill="#5A46FF"/>
<path fill-rule="evenodd" clip-rule="evenodd" d="M41.5123 20.6021C39.2734 20.6021 37.5194 18.8053 37.5194 16.5125C37.5194 14.2197 39.3104 12.3721 41.5123 12.3721C43.7143 12.3721 45.4806 14.2295 45.4806 16.5125C45.4806 18.7955 43.7002 20.6021 41.5123 20.6021ZM41.5123 10C37.9215 10 35 12.9214 35 16.5125C35 20.1035 37.9215 23 41.5123 23C42.963 23 44.1896 22.5726 45.4912 21.6163L45.6799 21.4765V23H48V16.5125C48 12.9214 45.0899 10 41.5123 10Z" fill="white"/>
<path fill-rule="evenodd" clip-rule="evenodd" d="M53.5714 16.5374V10H51V16.5374C51 20.1614 53.9491 23 57.7138 23H59V20.6271H57.7138C55.4292 20.6271 53.5714 18.7928 53.5714 16.5374Z" fill="white"/>
<path fill-rule="evenodd" clip-rule="evenodd" d="M65.5123 20.6021C63.2734 20.6021 61.5185 18.8053 61.5185 16.5125C61.5185 14.2197 63.3104 12.3721 65.5123 12.3721C67.7143 12.3721 69.4806 14.2295 69.4806 16.5125C69.4806 18.7955 67.7002 20.6021 65.5123 20.6021ZM65.5123 10C61.9215 10 59 12.9214 59 16.5125C59 20.1035 61.9215 23 65.5123 23C66.963 23 68.1896 22.5726 69.4903 21.6163L69.6799 21.4765V23H72V16.5125C72 12.9214 69.0899 10 65.5123 10Z" fill="white"/>
<path fill-rule="evenodd" clip-rule="evenodd" d="M87 23H83.3615L77.7768 17.3788V23H75V10H77.7768V14.8714L82.8009 10H86.4365L80.2 16.1091L87 23Z" fill="white"/>
<path fill-rule="evenodd" clip-rule="evenodd" d="M93.0133 20.6021C90.6021 20.6021 88.7123 18.8053 88.7123 16.5125C88.7123 14.2197 90.642 12.3721 93.0133 12.3721C95.3846 12.3721 97.2868 14.2295 97.2868 16.5125C97.2868 18.7955 95.3694 20.6021 93.0133 20.6021ZM93.0133 10C89.1463 10 86 12.9214 86 16.5125C86 20.1035 89.1463 23 93.0133 23C94.5755 23 95.8965 22.5726 97.2982 21.6163L97.5014 21.4765V23H100V16.5125C100 12.9214 96.8661 10 93.0133 10Z" fill="white"/>
<path fill-rule="evenodd" clip-rule="evenodd" d="M112.161 12.551V10H102.19V12.3471H108.685L102 20.3724V23H113V20.5264H105.503L112.162 12.551H112.161Z" fill="white"/>
<path fill-rule="evenodd" clip-rule="evenodd" d="M120.512 20.6021C118.272 20.6021 116.519 18.8053 116.519 16.5125C116.519 14.2197 118.31 12.3721 120.512 12.3721C122.715 12.3721 124.481 14.2295 124.481 16.5125C124.481 18.7955 122.701 20.6021 120.512 20.6021ZM120.512 10C116.922 10 114 12.9214 114 16.5125C114 20.1035 116.922 23 120.512 23C121.962 23 123.19 22.5726 124.49 21.6163L124.679 21.4765V23H127V16.5125C127 12.9214 124.089 10 120.512 10Z" fill="white"/>
<path fill-rule="evenodd" clip-rule="evenodd" d="M142.799 10C141.378 10 140.1 10.5521 139.102 11.5956L139.013 11.6873L138.925 11.5956C137.912 10.5369 136.667 10 135.228 10C132.394 10 130 12.3035 130 15.0299V23H132.559V15.0299C132.559 14.241 133.003 13.6329 133.376 13.2616C133.913 12.7799 134.517 12.5475 135.227 12.5475C135.937 12.5475 136.503 12.787 136.978 13.2616C137.445 13.7807 137.67 14.3568 137.67 15.0299V23H140.329V15.0299C140.329 13.6151 141.39 12.5484 142.798 12.5484C143.489 12.5484 144.127 12.7932 144.645 13.258C144.867 13.4797 145.057 13.7362 145.225 14.0434C145.374 14.3995 145.441 14.7094 145.441 15.0299V23H148V14.8545C147.903 12.2251 145.521 10 142.797 10" fill="white"/>
</svg>
